<?xml version="1.0" encoding="utf-8"?>
<!-- Generator: Adobe Illustrator 24.0.0, SVG Export Plug-In . SVG Version: 6.00 Build 0)  -->
<svg version="1.1" id="Layer_1" xmlns="http://www.w3.org/2000/svg" xmlns:xlink="http://www.w3.org/1999/xlink" x="0px" y="0px"
	 viewBox="0 0 76.2 28.4" style="enable-background:new 0 0 76.2 28.4;" xml:space="preserve">
<style type="text/css">
	.st0{fill:#FDB933;}
</style>
<g id="XMLID_807_">
	<path id="XMLID_818_" d="M37,9.3c0-0.1,0.2-0.2,0.4-0.2h3c0.3,0,0.5,0.3,0.4,0.6l-7.1,15.3c-0.1,0.1-0.2,0.2-0.4,0.2h-0.2
		c-0.2,0-0.3-0.1-0.4-0.2L25.6,9.6C25.5,9.3,25.6,9,26,9h3c0.2,0,0.3,0.1,0.4,0.2l3.7,8.3h0.1L37,9.3z"/>
	<path id="XMLID_816_" d="M56.7,9.4c0-0.2,0.2-0.4,0.4-0.4h2.7c0.2,0,0.4,0.2,0.4,0.4v15c0,0.2-0.2,0.4-0.4,0.4h-2.7
		c-0.2,0-0.4-0.2-0.4-0.4V9.4z"/>
	<path id="XMLID_814_" d="M70.7,8.8c2.3,0,3.9,0.7,5.5,2.1c0.2,0.2,0.2,0.5,0,0.6l-1.8,1.8c-0.2,0.2-0.4,0.2-0.6,0
		c-0.9-0.8-1.9-1.2-3.1-1.2c-2.6,0-4.4,2.1-4.4,4.7c0,2.5,1.9,4.6,4.5,4.6c1.2,0,2.2-0.4,3-1.1c0.2-0.1,0.5-0.1,0.6,0l1.8,1.9
		c0.2,0.2,0.1,0.5,0,0.6c-1.5,1.5-3.5,2.2-5.5,2.2c-4.5,0-8.2-3.6-8.2-8.1C62.5,12.4,66.1,8.8,70.7,8.8z"/>
	<path id="XMLID_813_" d="M51.2,18.8c0-0.1,0-0.2,0.1-0.2c1.9-0.8,3-2.4,3-4.4c0-2.7-1.9-4.8-4.6-4.8h-6.3c-0.2,0-0.4,0.2-0.4,0.4
		v14.8c0,0.2,0.2,0.4,0.4,0.4h2.5c0.2,0,0.4-0.2,0.4-0.4v-3.4v-2.3V16v-3.3c0-0.1,0.1-0.2,0.2-0.2h3c0.9,0,1.6,0.6,1.6,1.7
		S50.2,16,49.4,16h-1c-0.2,0-0.4,0.2-0.4,0.4v2.7c0,0.2,0,0.3,0.1,0.5l2.4,5.1c0,0.1,0.2,0.2,0.3,0.2h2.8c0.4,0,0.5-0.4,0.4-0.6
		L51.2,18.8z"/>
	<g id="XMLID_808_">
		<path id="XMLID_812_" class="st0" d="M13,17.6l6.2-11.3c0-0.1,0.1-0.1,0.2-0.1h4.7c0.2,0,0.3,0.2,0.2,0.3l-8.6,15.6
			c-0.1,0.2-0.3,0.2-0.4,0L13,17.9C13,17.8,13,17.7,13,17.6z"/>
		<path id="XMLID_811_" class="st0" d="M5.7,4.6L3.4,0.3C3.3,0.2,3.4,0,3.6,0h17.1c0.2,0,0.3,0.2,0.2,0.3l-2.3,4.3
			c0,0.1-0.1,0.1-0.2,0.1H5.9C5.8,4.7,5.8,4.7,5.7,4.6z"/>
		<path id="XMLID_810_" class="st0" d="M0.2,6.2h4.7c0.1,0,0.1,0,0.2,0.1l7.5,13.6v0l2.1,3.9c0,0.1,0,0.2,0,0.2l-2.3,4.3
			c-0.1,0.2-0.3,0.2-0.4,0L0,6.5C-0.1,6.4,0,6.2,0.2,6.2z"/>
		<path id="XMLID_809_" class="st0" d="M7,6.2h10.4c0.2,0,0.3,0.2,0.2,0.3L12.3,16c-0.1,0.2-0.3,0.2-0.4,0L6.8,6.5
			C6.7,6.4,6.8,6.2,7,6.2z"/>
	</g>
</g>
</svg>
